<?xml version="1.0" encoding="UTF-8"?>
<svg version="1.1" xmlns="http://www.w3.org/2000/svg" width="1280" height="32">
<path d="M0 0 C422.4 0 844.8 0 1280 0 C1280 10.56 1280 21.12 1280 32 C857.6 32 435.2 32 0 32 C0 21.44 0 10.88 0 0 Z " fill="#FDFDFD" transform="translate(0,0)"/>
<path d="M0 0 C422.4 0 844.8 0 1280 0 C1280 4.29 1280 8.58 1280 13 C1278.90120703 12.99815641 1277.80241405 12.99631283 1276.67032433 12.99441338 C1249.75207384 12.94972317 1222.83382826 12.91701189 1195.91554832 12.89637566 C1182.89729863 12.88612715 1169.87907365 12.87219213 1156.86083984 12.84912109 C1145.49476401 12.82898788 1134.12870611 12.8162371 1122.76261294 12.81182301 C1116.76200106 12.80924881 1110.7614404 12.80333819 1104.76084518 12.78853989 C1081.42244062 12.73318436 1058.18318469 12.86914825 1034.88279724 14.27536964 C1021.11265847 15.10388991 1007.38101669 15.29294172 993.5859375 15.265625 C991.05522627 15.26698281 988.5245153 15.26893238 985.99380493 15.27142334 C980.75609795 15.27432573 975.51846043 15.27024086 970.28076172 15.26074219 C963.71303155 15.24938389 957.14546423 15.25609981 950.57773972 15.26763153 C926.12447867 15.30394437 901.72734949 15.19385439 877.30447388 13.90965843 C851.22185654 12.54244221 825.11301903 12.30689307 799 12 C797.7720723 11.9855056 796.54414459 11.9710112 795.27900696 11.95607758 C777.06668177 11.74442916 758.85403785 11.58773473 740.64100027 11.45255566 C738.5998947 11.43731251 736.5587915 11.42178287 734.51768875 11.40616608 C690.9667418 11.07334971 647.41633259 10.89406734 603.86410427 10.87788659 C599.63364137 10.87627275 595.4031825 10.87336359 591.17272139 10.86917502 C526.88021555 10.65641434 526.88021555 10.65641434 462.67089844 13.48730469 C448.00684684 14.50690375 433.31133105 15.03230057 418.625 15.625 C417.4186471 15.67405739 417.4186471 15.67405739 416.18792343 15.72410583 C391.24453494 16.73624423 366.34549558 17.51275856 341.37854004 17.0435791 C338.86798052 16.99758117 336.35737446 16.95875989 333.84667969 16.92089844 C301.39134239 16.41391562 301.39134239 16.41391562 287.10717773 14.7331543 C276.41290956 13.56293748 265.62371523 13.54971512 254.87646484 13.34179688 C254.09558502 13.3255275 253.3147052 13.30925812 252.51016235 13.29249573 C251.04846455 13.26269256 249.58668722 13.23645691 248.12484741 13.21470642 C244.61854385 13.14402222 241.19723257 12.92935934 237.71655273 12.49291992 C232.24480197 11.84475766 226.8049869 11.85651369 221.30078125 11.8671875 C220.18930222 11.86623077 219.07782318 11.86527405 217.93266296 11.86428833 C215.58360741 11.86361035 213.23454996 11.86543791 210.88549805 11.86962891 C207.36828152 11.87491615 203.85119662 11.86970538 200.33398438 11.86328125 C189.47762499 11.85964694 178.63971543 11.96294731 167.79296875 12.4453125 C166.47755852 12.50342606 166.47755852 12.50342606 165.13557434 12.56271362 C160.04498201 12.8175956 155.05231692 13.33144954 150 14 C120.5725677 16.52046752 90.49140147 15.34140624 61 14.625 C60.27204224 14.60971252 59.54408447 14.59442505 58.79406738 14.57867432 C51.97787808 14.42895568 45.2858128 14.14322336 38.55078125 13 C30.78185887 11.6813829 23.04766004 11.54558333 15.1875 11.375 C13.70505841 11.33669318 12.22263603 11.29763481 10.74023438 11.2578125 C7.16033522 11.16324363 3.58028674 11.07872982 0 11 C0 7.37 0 3.74 0 0 Z " fill="#FEFEFE" transform="translate(0,0)"/>
<path d="M0 0 C4.26271277 0.00410832 8.52542501 0.00588166 12.78813934 0.00746536 C56.30514063 0.02571618 99.82024033 0.21778339 143.33593607 0.5507288 C145.35440958 0.56608182 147.37288494 0.58116047 149.39136124 0.59614182 C168.17951927 0.73610134 186.96712946 0.9070074 205.75450897 1.12877274 C207.00837906 1.14350883 208.26224915 1.15824493 209.5541153 1.17342758 C235.27748634 1.48181331 260.97635358 1.82470762 286.66857147 3.17564774 C311.52165308 4.47324873 336.37463118 4.43320201 361.25597382 4.38951492 C367.82906563 4.37808807 374.4019945 4.38473942 380.97508049 4.39665985 C386.18360798 4.4040126 391.3920991 4.40153099 396.6006279 4.39640427 C399.01979468 4.39510631 401.43896521 4.396573 403.85812759 4.40136337 C418.3691653 4.42383647 432.79237394 3.96454442 447.2745285 3.12657547 C465.01945406 2.10481159 482.69954735 1.84500639 500.47051811 1.89305329 C504.60265469 1.90217816 508.73479112 1.90006969 512.86693573 1.89969254 C519.81808657 1.90061754 526.76919274 1.90912387 533.72032928 1.92296219 C540.70015596 1.93681351 547.6799418 1.94398829 554.65978241 1.94347 C598.70105835 1.94047167 642.72158666 2.23691561 686.75450897 3.12877274 C686.75450897 5.10877274 686.75450897 7.08877274 686.75450897 9.12877274 C685.66602346 9.12692915 684.57753796 9.12508556 683.45606804 9.12318611 C656.78817367 9.07849243 630.12028425 9.04578302 603.45236015 9.02514839 C590.55517865 9.01490064 577.6580221 9.00096713 564.76085663 8.97789383 C553.50025622 8.95775824 542.23967391 8.94500929 530.979056 8.94059575 C525.03433526 8.93802193 519.08966622 8.93211395 513.14496231 8.91731262 C489.95650711 8.86178548 466.86926755 9.00791385 443.71871185 10.40414238 C429.63052943 11.25007828 415.57875925 11.4213175 401.46544647 11.39439774 C398.84505427 11.39575512 396.22466231 11.39770436 393.60427094 11.40019608 C388.1782547 11.40377171 382.75229398 11.39921375 377.32628632 11.38951492 C371.87247369 11.37987433 366.41877073 11.37986644 360.96495819 11.38951492 C309.91499524 11.4775868 309.91499524 11.4775868 286.35997772 10.15221024 C252.27281372 8.2561016 218.06675172 8.6647437 183.93802887 8.53883612 C176.68584948 8.51198269 169.43369497 8.48125692 162.18154144 8.44816971 C25.25159156 7.36378276 25.25159156 7.36378276 -163.66364288 10.99339676 C-167.25197032 11.18154622 -170.84085094 11.35774182 -174.42978668 11.53384781 C-178.8060591 11.74895987 -183.18203681 11.96979626 -187.55799103 12.19127274 C-188.35894196 12.23138474 -189.15989288 12.27149673 -189.98511505 12.31282425 C-192.23484966 12.42662463 -194.48432585 12.54458282 -196.73377228 12.66392899 C-197.99745636 12.72975174 -199.26114044 12.79557449 -200.56311798 12.86339188 C-203.1045424 13.04654697 -205.64079529 13.31407776 -208.16663361 13.64952469 C-212.46057739 14.2107548 -216.69306376 14.27265404 -221.01892853 14.26158524 C-221.84755905 14.26304047 -222.67618958 14.2644957 -223.52993011 14.26599503 C-226.22683021 14.26823639 -228.92360349 14.26195712 -231.62049103 14.25377274 C-232.5491095 14.2518895 -233.47772797 14.25000626 -234.43448639 14.24806595 C-281.77228202 14.13597881 -281.77228202 14.13597881 -304.52985382 11.24304581 C-313.85752384 10.13089086 -323.1110747 9.75077849 -332.49158478 9.54283524 C-333.30226599 9.52314808 -334.1129472 9.50346092 -334.9481945 9.48317719 C-353.22999428 9.04147952 -371.51115182 8.97436889 -389.79749298 8.99840164 C-394.25936773 9.00422777 -398.72118398 9.00071364 -403.18305683 8.99482918 C-406.68760877 8.99121281 -410.19214678 8.99236493 -413.69669914 8.99495697 C-415.34437505 8.99561666 -416.99205228 8.99483198 -418.63972664 8.99247742 C-429.43796485 8.94939229 -429.43796485 8.94939229 -440.18654633 9.87569046 C-444.3808998 10.39125386 -448.60770687 10.50770027 -452.82752228 10.68346024 C-453.82451645 10.72550583 -454.82151062 10.76755142 -455.84871674 10.81087112 C-466.87676161 11.24100692 -477.89801075 11.28297888 -488.93299103 11.25377274 C-489.98566162 11.25222183 -491.03833221 11.25067093 -492.12290192 11.24907303 C-517.75903513 11.2051462 -543.36577147 11.01240097 -568.90564728 8.60533524 C-577.00251863 7.84861829 -585.12311223 7.49274726 -593.24549103 7.12877274 C-593.24549103 5.14877274 -593.24549103 3.16877274 -593.24549103 1.12877274 C-588.92625102 1.07858044 -584.60717458 1.0426871 -580.28772736 1.01890945 C-578.82448105 1.00897611 -577.36125392 0.99542481 -575.89807892 0.97789383 C-567.57670888 0.88083497 -559.75801735 1.21616547 -551.53333282 2.6478157 C-545.1435937 3.58252916 -538.69202833 3.61839224 -532.24549103 3.75377274 C-531.11246552 3.78129623 -531.11246552 3.78129623 -529.9565506 3.80937576 C-484.67845265 5.5384523 -484.67845265 5.5384523 -439.5794754 2.64366531 C-434.87884193 2.04504133 -430.18474087 1.78315009 -425.45252228 1.57408524 C-424.50706039 1.53203964 -423.56159851 1.48999405 -422.58748627 1.44667435 C-411.53931207 1.00050852 -400.49184077 0.97820863 -389.43616486 0.99840164 C-385.89144503 1.00383643 -382.34684804 0.99837819 -378.80213165 0.99205399 C-376.51632409 0.99271371 -374.23051659 0.99399269 -371.94470978 0.99596024 C-370.90086624 0.993936 -369.85702271 0.99191177 -368.78154755 0.9898262 C-363.57268459 1.0064211 -358.51523868 1.24724305 -353.34774017 1.89519119 C-349.90681039 2.27751395 -346.4702708 2.32339827 -343.01111603 2.37486649 C-341.46374555 2.40641647 -339.91638247 2.43833094 -338.36902618 2.47056961 C-337.5736142 2.48595779 -336.77820221 2.50134598 -335.95868683 2.51720047 C-313.81796976 2.95829214 -313.81796976 2.95829214 -303.87049103 4.12877274 C-288.26192334 5.89562677 -272.47553955 5.85247321 -256.78418732 6.08909988 C-254.37632488 6.12672816 -251.96865029 6.1704407 -249.56092072 6.2156868 C-224.55281863 6.65983595 -199.6033608 5.76972283 -174.62049103 4.75377274 C-173.44084589 4.70616554 -173.44084589 4.70616554 -172.23736954 4.65759659 C-157.08788204 4.04484069 -141.94637861 3.41445755 -126.8207016 2.35252762 C-84.64494669 -0.57512373 -42.25243849 -0.0418341 0 0 Z " fill="#101010" transform="translate(593.245491027832,9.871227264404297)"/>
</svg>
